# xmcd
#
# Track frame offsets:
#	150
#	15857
#	36305
#	53077
#	70137
#	94087
#	108397
#	125490
#	146460
#	165465
#
# Disc length: 2414 seconds
#
# Revision: 1
# Processed by: cddbd v1.4PL0 Copyright (c) Steve Scherf et al.
# Submitted via: EasyCDDAExtractor 6.0.0.1
#
DISCID=7b096c0a
DTITLE=Eric Hansen - Lucky
DYEAR=1997
DGENRE=Blues
TTITLE0=Scrub A Dub
TTITLE1=Someday
TTITLE2=I Surrender
TTITLE3=Big Bodied Woman
TTITLE4=Without You
TTITLE5=I Love My Guitar
TTITLE6=Honor
TTITLE7=Two Crazy People (Lucky)
TTITLE8=Dear Carl
TTITLE9=In Grandpa's Eyes
EXTD=
EXTT0=
EXTT1=
EXTT2=
EXTT3=
EXTT4=
EXTT5=
EXTT6=
EXTT7=
EXTT8=
EXTT9=
PLAYORDER=
